# xmcd
#
# Track frame offsets: 
#        150
#        14197
#        38980
#        67537
#        88710
#        109317
#        130741
#
# Disc length: 2109 seconds
#
# Revision: 0
# Processed by: cddbd v1.5.2PL0 Copyright (c) Steve Scherf et al.
# Submitted via: ExactAudioCopyFreeDBPlugin 1.0
#
DISCID=58083b07
DTITLE=LOUDNESS - METAL WEEKEND CD2
DYEAR=2019
DGENRE=Heavy Metal
TTITLE0=KAMA SUTRA
TTITLE1=MASSIVE TORNADO
TTITLE2=RAIN
TTITLE3=THIS LONELY HEART
TTITLE4=CRAZY DOCTOR
TTITLE5=IN THE MIRROR
TTITLE6=S.D.I.
EXTD=
EXTT0=
EXTT1=
EXTT2=
EXTT3=
EXTT4=
EXTT5=
EXTT6=
PLAYORDER=
